<?xml version="1.0" encoding="UTF-8"?>
<svg version="1.1" xmlns="http://www.w3.org/2000/svg" width="1184" height="684">
<path d="M0 0 C390.72 0 781.44 0 1184 0 C1184 225.72 1184 451.44 1184 684 C793.28 684 402.56 684 0 684 C0 458.28 0 232.56 0 0 Z " fill="#FEFEFE" transform="translate(0,0)"/>
<path d="M0 0 C8.70361878 7.58618989 8.70361878 7.58618989 11.3984375 11.62841797 C14.09926574 12.01441461 16.59497019 12.21083154 19.30859375 12.28857422 C20.10889511 12.32397812 20.90919647 12.35938202 21.73374939 12.39585876 C24.30912595 12.50785744 26.88471841 12.60055391 29.4609375 12.69091797 C46.91047311 13.35952772 63.73971927 14.75972055 80.8359375 18.50341797 C82.01091797 18.74705078 83.18589844 18.99068359 84.39648438 19.24169922 C100.90373955 22.79937677 100.90373955 22.79937677 107.0234375 27.75341797 C109.07574878 32.04461429 109.1660924 35.96107619 108.3984375 40.62841797 C106.35530077 44.13093808 104.30056517 46.40203499 100.3984375 47.62841797 C95.99821134 47.94271984 93.23167758 47.74678749 89.3984375 45.62841797 C89.28290527 46.86487061 89.16737305 48.10132324 89.04833984 49.37524414 C88.39577876 55.2210148 87.20927911 60.92694756 86 66.67919922 C85.76437347 67.81439499 85.52874695 68.94959076 85.28598022 70.1191864 C84.7886694 72.51061717 84.28933475 74.90162787 83.78808594 77.29223633 C83.02818887 80.9182458 82.27529913 84.54565666 81.5234375 88.17333984 C81.03687429 90.508713 80.54990816 92.84400226 80.0625 95.17919922 C79.84050934 96.24834061 79.61851868 97.31748199 79.38980103 98.41902161 C75.13961805 118.63616957 69.73599866 134.86383739 52.3984375 147.62841797 C51.54636719 148.01900391 50.69429687 148.40958984 49.81640625 148.81201172 C46.41238612 151.36915123 46.15809217 154.27063219 45.4609375 158.25341797 C40.02072736 184.56184619 27.36503328 207.80047758 9.3984375 227.62841797 C8.64304687 228.47919922 7.88765625 229.32998047 7.109375 230.20654297 C-15.82418819 254.63748658 -51.38760126 269.97604552 -84.75532532 271.74243164 C-87.05336741 271.80820516 -89.34955189 271.84527913 -91.6484375 271.86669922 C-92.49972229 271.87477097 -93.35100708 271.88284271 -94.22808838 271.89115906 C-96.02655047 271.90491997 -97.8250378 271.91567744 -99.62353516 271.92358398 C-101.4208164 271.93500397 -103.21806649 271.95529352 -105.01513672 271.98510742 C-118.37303467 272.20580742 -130.61599883 270.73834133 -143.6015625 267.62841797 C-144.66596809 267.38105392 -144.66596809 267.38105392 -145.75187683 267.12869263 C-176.58931368 259.95794662 -204.55965134 242.00609229 -223.6015625 216.62841797 C-224.35179687 215.63197266 -225.10203125 214.63552734 -225.875 213.60888672 C-237.25142175 197.86438494 -250.6015625 173.62800332 -250.6015625 153.62841797 C-251.31054688 153.52271484 -252.01953125 153.41701172 -252.75 153.30810547 C-264.11691838 150.5987304 -274.02576809 141.27806515 -280.48046875 131.89794922 C-286.78349381 120.9505899 -289.45464135 108.68336766 -292.0390625 96.44091797 C-292.34032111 95.0358165 -292.64192112 93.63078818 -292.94384766 92.22583008 C-293.84217759 88.02927134 -294.72445987 83.82945858 -295.6015625 79.62841797 C-295.86179199 78.38382812 -296.12202148 77.13923828 -296.39013672 75.85693359 C-297.09368671 72.46984956 -297.78821337 69.08112121 -298.4765625 65.69091797 C-298.67950928 64.69874268 -298.88245605 63.70656738 -299.09155273 62.68432617 C-300.22311731 57.00693449 -301.04595101 51.39140947 -301.6015625 45.62841797 C-302.3028125 45.95841797 -303.0040625 46.28841797 -303.7265625 46.62841797 C-307.01840643 47.77340716 -309.13748092 48.05259122 -312.6015625 47.62841797 C-316.59292641 45.47922202 -318.92462933 43.8361356 -320.6015625 39.62841797 C-321.26286818 35.32993107 -321.14620864 31.74246689 -319.2265625 27.81591797 C-312.15477888 21.92276495 -302.26644478 20.38996815 -293.4765625 18.56591797 C-292.24083496 18.30915283 -291.00510742 18.0523877 -289.73193359 17.7878418 C-274.84573449 14.77791237 -260.29120976 12.50889507 -245.078125 12.65185547 C-243.37548906 12.65472413 -241.67285219 12.65708056 -239.97021484 12.65893555 C-236.62327883 12.66453482 -233.29174266 12.7515413 -229.94775391 12.88500977 C-222.54112071 13.02066796 -217.03681815 12.88509862 -211.47503662 7.58059692 C-209.08038352 5.01204261 -206.8518293 2.32443908 -204.6015625 -0.37158203 C-202.05613615 -2.65704875 -199.37479777 -4.68455366 -196.6015625 -6.68408203 C-195.92279053 -7.18061279 -195.24401855 -7.67714355 -194.54467773 -8.1887207 C-174.99287054 -22.29910353 -153.26491992 -29.54097524 -129.6015625 -33.37158203 C-128.34859375 -33.57912109 -127.095625 -33.78666016 -125.8046875 -34.00048828 C-80.95549603 -40.54480908 -34.61196183 -29.64176853 0 0 Z " fill="#010101" transform="translate(829.6015625,200.37158203125)"/>
<path d="M0 0 C3.29528156 4.17558136 3.94390384 8.71554235 4.875 13.8125 C9.72593993 38.28876833 18.8371529 58.10406643 40.0625 72.625 C50.74158097 79.21068501 62.62858463 83.03365482 75.14453125 83.31640625 C76.2992115 83.3475779 76.2992115 83.3475779 77.47721863 83.37937927 C79.92222667 83.44446049 82.36733683 83.50356591 84.8125 83.5625 C86.47592177 83.60572468 88.13933344 83.64934021 89.80273438 83.69335938 C93.86838648 83.80009907 97.93414071 83.90148171 102 84 C101.69095971 85.56397138 101.38085166 87.12773179 101.0703125 88.69140625 C100.81145264 89.99766968 100.81145264 89.99766968 100.54736328 91.33032227 C96.02502227 113.38732447 85.62802791 133.05050686 71 150 C70.32710937 150.85722656 69.65421875 151.71445312 68.9609375 152.59765625 C53.82026256 171.14649108 27.3594547 183.27624598 3.97314453 185.76855469 C-13.94471663 187.16337587 -32.73880378 187.51698777 -50 182 C-50.98492432 181.68651611 -50.98492432 181.68651611 -51.98974609 181.36669922 C-76.12598933 173.33732351 -96.35554725 156.27884893 -110 135 C-110.84304688 133.71802734 -110.84304688 133.71802734 -111.703125 132.41015625 C-120.05644987 118.99592059 -129 100.08587089 -129 84 C-128.04130005 83.970271 -128.04130005 83.970271 -127.06323242 83.93994141 C-124.10431367 83.84336503 -121.14597741 83.73423609 -118.1875 83.625 C-117.18267578 83.5940625 -116.17785156 83.563125 -115.14257812 83.53125 C-92.63095623 82.66263436 -73.56829111 74.29134672 -58 58 C-49.01728514 47.41143667 -43.24540574 33.67782268 -40.89453125 20.046875 C-40.71470703 19.015625 -40.53488281 17.984375 -40.34960938 16.921875 C-39.98949028 14.79520807 -39.65116039 12.66474417 -39.33398438 10.53125 C-37.96267127 2.97716536 -37.96267127 2.97716536 -35.21630859 0.18945312 C-25.54043563 -6.14450645 -9.66225813 -6.62500606 0 0 Z " fill="#FEFEFE" transform="translate(741,273)"/>
<path d="M0 0 C0.99320251 0.00323273 0.99320251 0.00323273 2.00646973 0.00653076 C11.79504969 0.05765146 20.77331674 0.46885655 30.1875 3.3125 C30.87102539 3.50585938 31.55455078 3.69921875 32.25878906 3.8984375 C53.54235746 9.97142399 69.8681963 20.31233835 85.1875 36.3125 C84.8575 36.9725 84.5275 37.6325 84.1875 38.3125 C81.53527408 38.79331289 78.92178152 39.1662973 76.25 39.5 C39.82764219 44.48016332 39.82764219 44.48016332 9.1875 62.3125 C8.8575 64.2925 8.5275 66.2725 8.1875 68.3125 C0.9275 68.3125 -6.3325 68.3125 -13.8125 68.3125 C-15.1325 65.6725 -16.4525 63.0325 -17.8125 60.3125 C-21.82022914 57.0301842 -27.0937224 55.60327824 -31.9375 53.875 C-32.72898437 53.58818359 -33.52046875 53.30136719 -34.3359375 53.00585938 C-35.97445818 52.41255632 -37.61448348 51.82339487 -39.25585938 51.23803711 C-40.98231588 50.61303743 -42.70237504 49.97011841 -44.41601562 49.31079102 C-51.51372821 46.610434 -58.65525046 44.77153064 -66.0625 43.125 C-67.19429687 42.86525391 -68.32609375 42.60550781 -69.4921875 42.33789062 C-74.9170588 41.10871897 -80.28829051 39.97508582 -85.8125 39.3125 C-63.56595712 12.78483547 -34.61340718 -0.1535449 0 0 Z " fill="#FDFDFD" transform="translate(726.8125,177.6875)"/>
<path d="M0 0 C12.40188555 8.0682154 20.93433368 19.54983473 24.5625 34.0625 C24.5625 40.0025 24.5625 45.9425 24.5625 52.0625 C-4.1475 52.0625 -32.8575 52.0625 -62.4375 52.0625 C-59.9659566 65.65598868 -57.10733682 75.83497599 -46.4375 85.0625 C-36.48928954 91.67220411 -27.20976568 93.36563168 -15.4375 92.0625 C-5.36261009 89.47119961 3.50284666 84.71045779 10.5625 77.0625 C11.89583333 75.72916667 13.22916667 74.39583333 14.5625 73.0625 C16.5425 74.0525 16.5425 74.0525 18.5625 75.0625 C18.5625 80.1634693 17.14752837 81.29921675 13.81640625 84.90625 C2.65914185 95.5800974 -9.49066418 101.02119897 -24.875 101.3125 C-40.19901097 100.97236424 -53.12961625 96.25165994 -64.2578125 85.43359375 C-75.6146263 73.07949702 -79.99954653 59.02252293 -79.71484375 42.4921875 C-79.13171986 28.97879901 -72.28170464 15.26214362 -62.4375 6.0625 C-44.13043575 -8.95305441 -20.86513167 -11.98042427 0 0 Z " fill="#040404" transform="translate(417.4375,356.9375)"/>
<path d="M0 0 C7.53188474 4.23507119 14.86355249 9.72425086 19.625 17.0625 C20.03286743 19.31195068 20.03286743 19.31195068 20.07666016 21.79589844 C20.0990274 22.73077087 20.12139465 23.66564331 20.1444397 24.62884521 C20.15415298 26.13514496 20.15415298 26.13514496 20.1640625 27.671875 C20.17641937 28.71265198 20.18877625 29.75342896 20.20150757 30.82574463 C20.22107061 33.02797833 20.23230534 35.23029944 20.23583984 37.43261719 C20.24989447 40.78730993 20.31719425 44.13824663 20.38671875 47.4921875 C20.39912174 49.63540016 20.40833898 51.77863409 20.4140625 53.921875 C20.44078033 54.91797791 20.46749817 55.91408081 20.49502563 56.94036865 C20.43157852 63.50717982 19.01427415 66.82598112 14.36769104 71.49549866 C6.25232799 78.79270998 -3.80921887 85.19947043 -15 85.5625 C-26.26978267 84.94719577 -35.42058369 80.54940296 -43.125 72.3125 C-52.1230932 61.33106839 -54.40793943 48.97490289 -53.375 35.0625 C-51.4243002 21.92575601 -46.9059776 11.47069786 -36.375 3.0625 C-24.91640688 -3.88561942 -12.3065077 -5.84930608 0 0 Z " fill="#FCFCFC" transform="translate(528.375,360.9375)"/>
<path d="M0 0 C2.33169443 2.06056717 4.51129111 4.25402442 6.6796875 6.484375 C7.6696875 7.144375 8.6596875 7.804375 9.6796875 8.484375 C9.66808594 7.90429688 9.65648437 7.32421875 9.64453125 6.7265625 C9.63550781 5.94539063 9.62648438 5.16421875 9.6171875 4.359375 C9.60558594 3.59367187 9.59398437 2.82796875 9.58203125 2.0390625 C9.6796875 -0.515625 9.6796875 -0.515625 10.6796875 -6.515625 C15.9596875 -6.515625 21.2396875 -6.515625 26.6796875 -6.515625 C26.35462723 -5.0636673 26.02956696 -3.61170959 25.69465637 -2.11575317 C24.67359962 3.01254208 24.40428012 7.87099551 24.44018555 13.08642578 C24.43817139 13.98877457 24.43615723 14.89112335 24.43408203 15.82081604 C24.43056204 17.76262228 24.43127179 19.70444004 24.43585777 21.64624405 C24.4415071 24.73482472 24.43219972 27.82303757 24.4186554 30.91159058 C24.38177041 39.6871713 24.3629335 48.46262492 24.37426758 57.23828125 C24.38016723 62.62520737 24.36162599 68.01161362 24.32837868 73.39843369 C24.32050187 75.43385234 24.32159497 77.46932884 24.33240318 79.50473404 C24.41299426 95.367228 23.32356909 110.74878533 12.6796875 123.484375 C12.20273437 124.09410156 11.72578125 124.70382812 11.234375 125.33203125 C2.88191219 134.88070105 -11.14030358 139.64956789 -23.46386719 140.66015625 C-33.08225531 141.23536955 -41.58618287 140.96375465 -50.3203125 136.484375 C-51.83044922 135.72060547 -51.83044922 135.72060547 -53.37109375 134.94140625 C-60.33740851 131.15027356 -68.68410078 126.39301016 -71.3203125 118.484375 C-69.5078125 116.921875 -69.5078125 116.921875 -67.3203125 115.484375 C-64.3203125 116.484375 -64.3203125 116.484375 -62.1953125 118.671875 C-53.61619747 127.48010586 -42.60542732 131.81238489 -30.3828125 132.046875 C-20.90898614 131.96672227 -11.31379027 128.99161919 -3.80859375 123.05078125 C1.63153343 117.32508309 4.64558959 110.00614714 6.6796875 102.484375 C6.84936035 101.88125488 7.0190332 101.27813477 7.19384766 100.65673828 C7.71816434 98.31233134 7.88843588 96.11798248 7.99609375 93.71875 C8.03798828 92.82929688 8.07988281 91.93984375 8.12304688 91.0234375 C8.16236328 90.10304688 8.20167969 89.18265625 8.2421875 88.234375 C8.30696289 86.83058594 8.30696289 86.83058594 8.37304688 85.3984375 C8.478868 83.09388859 8.58095307 80.78923661 8.6796875 78.484375 C8.02484375 79.06445312 7.37 79.64453125 6.6953125 80.2421875 C-6.76054492 91.75948919 -18.7956244 95.43119017 -36.3203125 94.484375 C-39.87288993 93.87957965 -43.00672484 92.88671244 -46.3203125 91.484375 C-47.13757813 91.1440625 -47.95484375 90.80375 -48.796875 90.453125 C-63.37792799 83.77202332 -72.59810156 72.90939336 -78.41015625 58.11328125 C-82.36893191 46.67870606 -81.93666968 32.33328944 -76.92578125 21.37109375 C-69.01156617 7.1409114 -58.44511048 -2.53060999 -43.19140625 -8.32421875 C-28.03195712 -12.62582369 -12.2208852 -9.83755904 0 0 Z M-54.3203125 11.484375 C-63.33347063 22.3381149 -65.16369648 35.74033977 -64.3203125 49.484375 C-62.7511936 60.12246924 -58.44734493 70.50537174 -50.4453125 77.91796875 C-41.3210856 84.64373159 -31.57989261 87.73382518 -20.3203125 86.484375 C-9.4424158 83.44934254 2.67337061 76.36712113 8.6796875 66.484375 C9.56143898 62.86859907 9.59235694 59.36250032 9.58203125 55.65234375 C9.60131432 54.10466057 9.60131432 54.10466057 9.62098694 52.52571106 C9.63815919 50.34980854 9.63975974 48.17373387 9.62670898 45.99780273 C9.61723986 42.69016434 9.68757506 39.39062496 9.76367188 36.08398438 C10.18981986 23.20593819 10.18981986 23.20593819 4.47265625 12.21875 C2.08718919 10.11347459 2.08718919 10.11347459 -0.3203125 8.484375 C-1.32320312 7.69160156 -2.32609375 6.89882813 -3.359375 6.08203125 C-4.21273437 5.57542969 -5.06609375 5.06882812 -5.9453125 4.546875 C-6.80382812 4.02222656 -7.66234375 3.49757813 -8.546875 2.95703125 C-25.58535265 -6.0901604 -41.48594754 -2.25881373 -54.3203125 11.484375 Z " fill="#040404" transform="translate(539.3203125,359.515625)"/>
<path d="M0 0 C5.28 0 10.56 0 16 0 C16.33 19.14 16.66 38.28 17 58 C19.64 55.36 22.28 52.72 25 50 C36.24745827 42.04328279 47.42889839 40.06524808 61 42 C69.62112873 43.66658723 77.6293844 46.81933394 84 53 C84.62390625 53.59683594 85.2478125 54.19367188 85.890625 54.80859375 C95.40870298 64.74658693 95.56097732 75.57600893 95.390625 88.6015625 C95.38315116 90.29120205 95.37746364 91.98085034 95.37347412 93.67050171 C95.35830758 98.08637029 95.31910509 102.50170043 95.2746582 106.9173584 C95.23350999 111.43571695 95.21542164 115.95416375 95.1953125 120.47265625 C95.1526004 129.31537704 95.08232595 138.1575592 95 147 C90.05 147 85.1 147 80 147 C79.9906543 144.84098145 79.98130859 142.68196289 79.97167969 140.45751953 C79.93778496 133.29286471 79.88216729 126.12849413 79.81609726 118.96406746 C79.77672937 114.62381693 79.74448888 110.28376603 79.72900391 105.94335938 C79.71376636 101.74799424 79.67919675 97.55317834 79.63169098 93.35805893 C79.61694988 91.76428906 79.60896319 90.17044075 79.60811615 88.57660294 C79.5953598 76.60014396 78.45005837 66.77269158 69.9375 57.69140625 C63.08469221 51.70901558 55.00844102 50.29824759 46.1328125 50.52734375 C36.12772503 51.27619943 26.65482963 57.80876093 20 65 C19.22289925 65.80627838 19.22289925 65.80627838 18.43009949 66.62884521 C16.45920616 69.89665504 16.56018675 72.90746883 16.56762695 76.61425781 C16.5574353 77.37562042 16.54724365 78.13698303 16.53674316 78.92141724 C16.50660583 81.43206127 16.4973463 83.94232382 16.48828125 86.453125 C16.47143508 88.19620024 16.45328492 89.93926333 16.43388367 91.68231201 C16.38637073 96.26566775 16.35656979 100.84897422 16.33044434 105.43249512 C16.30064532 110.11134574 16.25411273 114.79002656 16.20898438 119.46875 C16.12293639 128.64576408 16.05714464 137.82276037 16 147 C10.72 147 5.44 147 0 147 C0 98.49 0 49.98 0 0 Z " fill="#060606" transform="translate(219,308)"/>
<path d="M0 0 C0.68126953 0.30236572 1.36253906 0.60473145 2.06445312 0.91625977 C12.5859742 5.79614518 25.27007519 14.0499706 30.125 24.9375 C28.475 26.2575 26.825 27.5775 25.125 28.9375 C21.27304223 27.36818387 19.00756053 24.88709682 16.125 21.9375 C5.26648984 11.07898984 -10.6199697 4.73953654 -25.8125 4.5625 C-41.55330703 4.71411757 -53.84905813 10.22223022 -65.296875 21.09765625 C-71.9856902 28.46548754 -76.89409213 37.44876851 -79.875 46.9375 C-80.23207031 48.06027344 -80.58914062 49.18304688 -80.95703125 50.33984375 C-82.45813211 56.52538965 -82.20365577 62.86089888 -82.1875 69.1875 C-82.20361328 70.43402344 -82.21972656 71.68054688 -82.23632812 72.96484375 C-82.24572019 90.94126126 -76.0984115 107.70575178 -63.8515625 121.05859375 C-52.12604175 132.20479035 -38.44877478 136.61393445 -22.57421875 136.2421875 C-4.76318202 135.36558167 11.04546912 126.71225568 23.125 113.9375 C24.15193964 112.62480325 25.16337108 111.29876691 26.125 109.9375 C29.77816671 111.18726756 30.90565836 111.60848753 33.125 114.9375 C21.23097589 131.00644671 4.1101401 142.57286181 -15.875 145.9375 C-36.58002802 147.49669227 -55.89455339 144.03244746 -72.5625 130.8046875 C-75.09030969 128.59285402 -77.49616096 126.30827518 -79.875 123.9375 C-80.57367188 123.26203125 -81.27234375 122.5865625 -81.9921875 121.890625 C-94.89990156 108.53088982 -101.08685393 89.93670355 -101 71.625 C-101.00386719 70.82126953 -101.00773437 70.01753906 -101.01171875 69.18945312 C-100.97973231 49.30987926 -94.06338045 32.00917364 -80.5 17.375 C-79.63375 16.570625 -78.7675 15.76625 -77.875 14.9375 C-77.2871875 14.34453125 -76.699375 13.7515625 -76.09375 13.140625 C-56.2893671 -5.92478839 -25.13040013 -11.22350311 0 0 Z " fill="#050505" transform="translate(165.875,313.0625)"/>
<path d="M0 0 C0.99 0.495 0.99 0.495 2 1 C2.51066641 3.33860699 2.89812036 5.60681288 3.2265625 7.97265625 C3.45001878 9.43799538 3.67518154 10.90307508 3.90185547 12.36791992 C4.07754059 13.51990372 4.07754059 13.51990372 4.2567749 14.69515991 C7.56581286 38.25813207 7.56581286 38.25813207 21.64453125 56.62109375 C37.02474322 65.62476676 54.55177959 68.01784043 72 70 C69.63106022 72.36893978 68.83486553 72.33880949 65.58984375 72.67578125 C64.69056152 72.77858398 63.7912793 72.88138672 62.86474609 72.98730469 C61.89875488 73.09461914 60.93276367 73.20193359 59.9375 73.3125 C44.64551183 75.23053728 25.76676108 78.06065552 15.5 90.875 C14.62357935 92.22294521 13.78799833 93.59852646 13 95 C12.63648438 95.64195312 12.27296875 96.28390625 11.8984375 96.9453125 C5.12335675 110.54719218 3.54753438 127.18989659 1 142 C0.67 142 0.34 142 0 142 C-0.10022461 141.351521 -0.20044922 140.70304199 -0.30371094 140.03491211 C-3.80218019 109.95955768 -3.80218019 109.95955768 -19.80078125 85.515625 C-31.95342054 77.14044908 -48.50478549 74.65596289 -62.86669922 72.93676758 C-64.91926071 72.68338298 -66.96163355 72.34967793 -69 72 C-69.33 71.34 -69.66 70.68 -70 70 C-69.175 69.87995605 -68.35 69.75991211 -67.5 69.63623047 C-37.72395828 66.24859337 -37.72395828 66.24859337 -13.52734375 50.26953125 C-6.20670977 39.76990637 -4.03781146 26.50773741 -2.1875 14.125 C-1.97064395 12.74329394 -1.75254974 11.36178162 -1.53320312 9.98046875 C-1.0100169 6.65532963 -0.49916174 3.32881493 0 0 Z " fill="#030303" transform="translate(1107,213)"/>
<path d="M0 0 C4.95 0 9.9 0 15 0 C15.0093457 2.0931958 15.01869141 4.1863916 15.02832031 6.34301758 C15.06224399 13.2961264 15.11787725 20.24894323 15.18390274 27.20181751 C15.22323879 31.4131242 15.25549464 35.62422614 15.27099609 39.83569336 C15.28625496 43.9078768 15.32086114 47.9794968 15.36830902 52.05142784 C15.38302847 53.5969214 15.39103554 55.14249544 15.39188385 56.68805885 C15.40402403 67.72625541 16.35002894 78.36960252 23.3828125 87.43359375 C29.59540127 93.45110123 36.616566 96.07121605 45.125 96.3125 C58.1611317 96.08593621 68.27449813 88.8426357 77.14385986 79.81880188 C79.46457707 76.29447637 79.57515299 73.44673619 79.54589844 69.36401367 C79.56140495 68.23638107 79.56140495 68.23638107 79.57722473 67.08596802 C79.60660921 64.61308183 79.60815092 62.14101566 79.609375 59.66796875 C79.62435966 57.94874006 79.64108742 56.22952576 79.65948486 54.5103302 C79.70313877 49.99434745 79.72315306 45.47855889 79.73822021 40.96240234 C79.75779841 36.35046923 79.79976762 31.73874561 79.83984375 27.12695312 C79.91512486 18.0846646 79.9633586 9.04252775 80 0 C84.95 0 89.9 0 95 0 C95.00808685 1.07138214 95.01617371 2.14276428 95.02450562 3.24661255 C95.10235234 13.39649194 95.19018514 23.54624361 95.28752708 33.69595528 C95.33724491 38.91267418 95.38357495 44.12937519 95.421875 49.34619141 C95.45904017 54.39079402 95.50548004 59.43523738 95.55806351 64.479702 C95.57644303 66.39395193 95.59161 68.30823579 95.60334396 70.22253799 C95.67192405 81.03465753 96.17802293 91.31746074 98 102 C92.72 102 87.44 102 82 102 C81.34015277 98.04091662 80.87874308 95.00295662 80.9375 91.125 C80.94652344 90.34382813 80.95554687 89.56265625 80.96484375 88.7578125 C80.97644531 88.17773438 80.98804688 87.59765625 81 87 C80.53851562 87.42410156 80.07703125 87.84820312 79.6015625 88.28515625 C66.84069369 99.75985053 55.38666144 105.99937015 37.9921875 105.3203125 C26.66097196 104.58189761 15.80507349 99.2733779 8 91 C-0.16532047 80.52708897 -0.42037323 69.61194945 -0.29296875 56.93359375 C-0.28736446 55.28736256 -0.2830983 53.64112632 -0.28010559 51.99488831 C-0.26872229 47.68925853 -0.23931229 43.38393862 -0.20599365 39.07843018 C-0.17515125 34.6740742 -0.16157015 30.26966752 -0.14648438 25.86523438 C-0.11443537 17.24333244 -0.06172177 8.62174062 0 0 Z " fill="#020202" transform="translate(887,353)"/>
<path d="M0 0 C1.98 0 3.96 0 6 0 C6 9.9 6 19.8 6 30 C17.22 30 28.44 30 40 30 C39 38 39 38 38 39 C35.6243148 39.0883967 33.27791326 39.11530305 30.90234375 39.09765625 C29.83905602 39.09553383 29.83905602 39.09553383 28.75428772 39.09336853 C26.48198288 39.08775443 24.20977525 39.07519963 21.9375 39.0625 C20.40039204 39.05748681 18.86328255 39.05292359 17.32617188 39.04882812 C13.55074358 39.03778042 9.77538829 39.02050641 6 39 C6.0383008 47.12035076 6.09800984 55.24015996 6.18390274 63.36013317 C6.2231528 67.13195032 6.25544975 70.90354187 6.27099609 74.67553711 C6.28631302 78.32630737 6.32101709 81.97645642 6.36830902 85.6269474 C6.38296997 87.00889958 6.39103207 88.39094052 6.39188385 89.7729702 C6.4056022 100.8864136 7.1374692 113.3874692 15.44921875 121.69921875 C20.4294692 125.87660767 24.85491569 126.54525669 31.1953125 126.34765625 C39.04179859 125.37504168 45.02024426 120.88808371 51 116 C52.32 116.99 53.64 117.98 55 119 C52.15000564 125.64998685 45.81483055 130.48469473 39.375 133.5 C30.00145734 136.76543321 19.49677534 136.12436394 10.4296875 132.25 C0.43149342 127.10623455 -4.88824357 119.4791532 -8.35871887 108.86277771 C-9.7092726 102.8336979 -9.36140648 96.61161284 -9.29296875 90.46484375 C-9.28736306 88.97555471 -9.28309757 87.48626008 -9.28010559 85.9969635 C-9.26873325 82.10560427 -9.23933328 78.21458899 -9.20599365 74.32336426 C-9.17512711 70.34127452 -9.16156507 66.3591284 -9.14648438 62.37695312 C-9.11445481 54.58446158 -9.06175084 46.79232309 -9 39 C-15.6 39 -22.2 39 -29 39 C-29 36.03 -29 33.06 -29 30 C-18.605 29.505 -18.605 29.505 -8 29 C-7.4225 26.628125 -6.845 24.25625 -6.25 21.8125 C-4.43264413 14.44962551 -2.32440576 7.2204945 0 0 Z " fill="#030303" transform="translate(1032,323)"/>
<path d="M0 0 C10.57892327 6.45523114 17.29491155 15.21544992 20.25 27.19921875 C21.17943731 31.53659285 21.375 34.90885155 21.375 39.44921875 C-2.055 39.44921875 -25.485 39.44921875 -49.625 39.44921875 C-49.625 25.54175077 -47.15781779 17.19522949 -37.5546875 7.3203125 C-27.00476873 -2.65983713 -13.82179133 -6.47896469 0 0 Z " fill="#FBFBFB" transform="translate(404.625,360.55078125)"/>
</svg>
